<?xml version="1.0" encoding="UTF-8"?>
<svg width="752pt" height="752pt" version="1.1" viewBox="0 0 752 752" xmlns="http://www.w3.org/2000/svg">
 <defs>
  <clipPath id="a">
   <path d="m139.21 139.21h471.79v473.58h-471.79z"/>
  </clipPath>
 </defs>
 <g clip-path="url(#a)">
  <path d="m161.5 610.01c-9.1797 6.8867-22.285 0.33203-22.285-11.145v-125.36c0-4.2734 1.9609-8.3125 5.3242-10.953l93.715-73.633c4.9062-3.8555 10.969-5.9531 17.211-5.9531h124.02c21.152 0 38.305 17.152 38.305 38.305 0 21.156-17.152 38.305-38.305 38.305h-76.609c-5.7695 0-10.445 4.6758-10.445 10.445s4.6758 10.449 10.445 10.449h125.76l119.66-55.652c22.566-9.8828 48.383-0.015625 58.109 22.211 9.8047 22.414 0.074218 48.57-21.996 59.125l-129.9 62.125c-3.75 1.7969-7.8594 2.7266-12.02 2.7266h-228.98zm253.4-452.29c24.672-24.672 64.668-24.672 89.336 0 24.672 24.672 24.672 64.672 0 89.344l-90.531 90.535c-5.4375 5.4414-14.258 5.4414-19.695 0l-90.531-90.535c-24.672-24.672-24.672-64.672 0-89.344 24.668-24.672 64.664-24.672 89.336 0l11.043 11.043z" fill="#c5a38c" fill-rule="evenodd"/>
 </g>
</svg>
