<?xml version="1.0" encoding="UTF-8"?>
<svg width="752pt" height="752pt" version="1.1" viewBox="0 0 752 752" xmlns="http://www.w3.org/2000/svg">
 <g fill="#586c91">
  <path d="m546.75 341.04c-13.875-13.875-28.305-23.215-43.102-28.117 1.8516-21.273-6.3828-46.34-22.293-65.949-16.371-20.258-47.914-44.398-104.98-44.398-98.879 0-170.19 165.29-173.25 172.41l-0.64844 1.4805v173.06l266.02-0.003906 2.1289-4.625c11.746-26.176 8.3242-52.168 5.5508-73.07-2.1289-16.188-3.9766-30.246 1.7578-38.941 13.133-20.164 16.188-44.953 16.836-55.59l49.395-21.645c2.6836-1.2031 4.625-3.6055 5.1797-6.5664 0.45703-2.9609-0.46484-6.0117-2.5938-8.0469zm-82.137 83.152c-8.8789 13.598-6.5664 31.078-4.1641 49.578 2.4062 18.5 5.1797 39.312-2.4062 59.844h-239.75v-153.91c7.1211-16.094 73.996-161.31 158.07-161.31 50.871 0 78.531 20.996 92.773 38.57 15.168 18.684 19.609 38.57 18.961 52.629-4.1641-0.46094-8.2305-0.73828-12.488-0.55469-38.758 1.8516-64.656 32.465-65.766 33.762l-2.4961 2.9609 0.83203 3.793c3.2383 14.43 10.637 24.883 22.016 30.801 7.9531 4.1641 16.836 5.5508 25.25 5.5508 8.5078 0 16.559-1.4805 22.754-2.9609-1.1992 10.727-4.6211 27.469-13.594 41.25zm19.516-59.566c-0.27734 0.09375-28.488 11.191-46.527 1.6641-6.1953-3.2383-10.453-8.6953-12.949-16.371 6.8438-6.9375 26.363-24.141 51.797-25.25 17.48-0.73828 34.871 6.1953 51.797 20.625z"/>
  <path d="m392.28 316.89c0 10.883-8.8633 19.703-19.793 19.703-10.934 0-19.797-8.8203-19.797-19.703 0-10.879 8.8633-19.699 19.797-19.699 10.93 0 19.793 8.8203 19.793 19.699"/>
 </g>
</svg>
