<?xml version="1.0" encoding="UTF-8"?>
<svg width="752pt" height="752pt" version="1.1" viewBox="0 0 752 752" xmlns="http://www.w3.org/2000/svg">
 <path d="m187.23 439.07c-1.3281 2.2539-0.58203 5.1562 1.668 6.4883 0.75781 0.44531 1.5859 0.65625 2.4062 0.65625 1.6172 0 3.1992-0.83203 4.082-2.3281 14.066-23.805 37.93-31.789 48.09-34.203-0.26172 3.707-0.44141 7.4414-0.44141 11.223 0 27.52 7.1211 53.262 19.453 75.18-14.125 4.4844-51.402 20.461-53.215 64.414-0.10547 2.6133 1.9258 4.8203 4.5352 4.9258 0.070312 0.007813 0.13281 0.007813 0.20312 0.007813 2.5234 0 4.6211-1.9922 4.7266-4.543 1.7148-41.582 39.438-54.016 48.844-56.477 24.121 36.887 63.715 61.02 108.42 61.02s84.305-24.133 108.42-61.016c9.4062 2.4609 47.129 14.895 48.844 56.477 0.10938 2.5469 2.2031 4.5391 4.7305 4.5391 0.066406 0 0.13281 0 0.19922-0.003906 2.6133-0.10547 4.6445-2.3125 4.5352-4.9258-1.8125-43.953-39.09-59.93-53.215-64.414 12.332-21.918 19.453-47.66 19.453-75.18 0-3.7852-0.17578-7.5234-0.44141-11.238 10.137 2.3789 33.965 10.305 48.09 34.219 0.88672 1.4922 2.4648 2.3281 4.082 2.3281 0.82031 0 1.6445-0.21094 2.4062-0.65625 2.2539-1.332 2.9961-4.2383 1.668-6.4883-17.664-29.891-48.004-37.605-57.246-39.309-4.3477-32.082-18.438-60.75-38.875-82.367 15.605-5.4961 48.918-22.043 50.625-63.543 0.10547-2.6133-1.9258-4.8203-4.5352-4.9258-2.4414-0.20313-4.8203 1.918-4.9258 4.5352-1.7109 41.453-39.219 53.941-48.77 56.457-10.195-9.2422-21.672-16.855-34.102-22.48-0.73828-14.617-7.6016-27.633-18.133-36.461l9.6602-11.211c5.0195 3.5195 10.871 5.3438 16.758 5.3438 7.4961 0 14.992-2.8516 20.699-8.5586 11.414-11.414 11.414-29.988 0-41.402-11.414-11.414-29.988-11.414-41.402 0-10.34 10.34-11.215 26.508-2.8164 37.953l-10.746 12.473c-7.332-4.1094-15.762-6.4766-24.746-6.4766-9.1055 0-17.641 2.4414-25.043 6.6562l-10.902-12.656c8.3984-11.445 7.5273-27.609-2.8164-37.953-11.414-11.414-29.988-11.414-41.402 0-11.414 11.414-11.414 29.988 0 41.402 5.707 5.707 13.203 8.5586 20.699 8.5586 5.8867 0 11.738-1.8242 16.758-5.3438l9.8594 11.445c-10.336 8.7852-17.086 21.617-17.867 36.031-12.598 5.6406-24.234 13.316-34.551 22.668-9.543-2.6211-47.094-15.523-48.781-56.445-0.10938-2.6133-2.4453-4.8477-4.9258-4.5352-2.6133 0.10547-4.6445 2.3125-4.5352 4.9258 1.707 41.5 35.02 58.047 50.625 63.543-20.441 21.617-34.527 50.285-38.875 82.367-9.2305 1.6992-39.57 9.4102-57.234 39.305zm234-237.23c3.8633-3.8633 8.9297-5.7891 14.004-5.7891s10.141 1.9297 14.004 5.7891c7.7227 7.7227 7.7227 20.285 0 28.008-7.7227 7.7227-20.285 7.7227-28.008 0-7.7227-7.7227-7.7227-20.285 0-28.008zm-118.47 28.008c-7.7227-7.7227-7.7227-20.285 0-28.008 3.8633-3.8633 8.9297-5.7891 14.004-5.7891s10.141 1.9297 14.004 5.7891c7.7227 7.7227 7.7227 20.285 0 28.008-7.7227 7.7227-20.285 7.7227-28.008 0zm7.2305 305.11c36.965-4.3438 57.73-28.617 66.008-40.934 8.2773 12.312 29.047 36.586 66.012 40.934-19.109 13.277-41.742 21-66.012 21-24.266 0-46.898-7.7227-66.008-21zm143.26-8.793c-47.371-0.21875-69.047-36.137-72.516-42.508v-197.67c65.906 2.7344 118.76 62.191 118.76 134.92-0.003906 42.52-18.078 80.484-46.246 105.26zm-77.027-277.6c20.582 0 37.652 15.152 40.809 34.898-12.934-4.5742-26.715-7.0781-41.035-7.0781-14.141 0-27.766 2.4336-40.559 6.8984 3.2305-19.656 20.262-34.719 40.785-34.719zm-4.9609 37.426v197.68c-3.5312 6.4688-25.238 42.285-72.512 42.5-28.172-24.773-46.246-62.742-46.246-105.26-0.003906-72.73 52.852-132.18 118.76-134.92z" fill="#87736b"/>
</svg>
