<?xml version="1.0" encoding="UTF-8"?>
<svg width="752pt" height="752pt" version="1.1" viewBox="0 0 752 752" xmlns="http://www.w3.org/2000/svg">
 <g fill="#87736b">
  <path d="m336.5 352.32c0 8.6836-7.0391 15.723-15.723 15.723s-15.723-7.0391-15.723-15.723c0-8.6875 7.0391-15.727 15.723-15.727s15.723 7.0391 15.723 15.727"/>
  <path d="m446.95 352.32c0 8.6836-7.0391 15.723-15.723 15.723s-15.727-7.0391-15.727-15.723c0-8.6875 7.043-15.727 15.727-15.727s15.723 7.0391 15.723 15.727"/>
  <path d="m387.47 497.17c-2.9609-1.4805-3.6055-6.6602-3.6055-10.82v-24.234c18.035-2.5898 31.543-13.688 31.543-27.008 0-15.262-17.668-27.562-39.402-27.562-21.738 0-39.402 12.395-39.402 27.562 0 13.32 13.504 24.512 31.543 27.008v24.234c0 4.1641-0.64844 9.3438-3.6055 10.82-9.6211 4.7188-38.293-12.117-54.574-24.883l-9.8125 12.395c6.8438 5.457 38.109 28.859 60.676 28.859 3.793 0 7.3984-0.64844 10.543-2.2188 1.4805-0.73828 3.0508-1.7578 4.625-3.1445 1.4805 1.3867 3.0508 2.4062 4.625 3.1445 3.1445 1.5742 6.7539 2.2188 10.543 2.2188 22.57 0 53.832-23.492 60.676-28.859l-9.7109-12.395c-16.367 12.859-45.043 29.602-54.66 24.883z"/>
  <path d="m549.43 423.27v-15.723h-8.6953c0.55469-5.1797 0.83203-10.453 0.83203-15.723 0-29.598-8.7891-57.254-23.773-80.934 2.4961-7.0312 15.91-47.172 15.91-100.36v-7.7695l-7.7695-0.09375c-2.3125 0-49.578 0.18359-91.387 41.902-18.223-6.5664-37.832-10.359-58.457-10.359s-40.234 3.793-58.457 10.359c-41.902-41.809-89.168-41.996-91.48-41.996l-7.7695 0.09375v7.7695c0 53.184 13.41 93.328 15.91 100.36-15.078 23.676-23.863 51.336-23.863 80.934 0 5.3633 0.27734 10.543 0.83203 15.723h-8.6953v15.723h11.191c1.2031 5.457 2.5898 10.73 4.3477 15.91h-15.539v15.723h21.828c25.621 55.496 83.895 94.438 151.51 94.438s125.89-38.941 151.51-94.438h21.828v-15.723h-15.539c1.7578-5.1797 3.2383-10.453 4.3477-15.91l11.383 0.003906zm-31.637-204.23c-0.92578 33.484-7.3086 61.047-11.469 75.754-14.984-18.223-34.133-33.207-55.961-43.75 26.086-23.68 54.113-30.246 67.43-32.004zm-283.59 0c13.32 1.7578 41.348 8.3242 67.523 32.004-21.922 10.543-40.977 25.527-55.961 43.75-4.1602-14.707-10.543-42.27-11.562-75.754zm282.76 220.14h-46.434v15.723h39.312c-24.605 46.527-75.293 78.715-133.93 78.715-58.645 0-109.33-32.098-133.93-78.715h39.312v-15.723h-46.434c-1.9414-5.1797-3.6055-10.453-4.9023-15.91h51.336v-15.723h-54.113c-0.64844-5.1797-1.0156-10.453-1.0156-15.723 0-78.25 67.152-141.89 149.75-141.89s149.84 63.637 149.84 141.8c0 5.3633-0.37109 10.543-1.0156 15.723h-54.203v15.723h51.336c-1.2969 5.5508-2.9648 10.824-4.9062 16.004z"/>
 </g>
</svg>
