<?xml version="1.0" encoding="UTF-8"?>
<svg width="752pt" height="752pt" version="1.1" viewBox="0 0 752 752" xmlns="http://www.w3.org/2000/svg">
 <g fill="#586c91">
  <path d="m344.46 478.49c0 8.6836-7.0391 15.723-15.727 15.723-8.6836 0-15.723-7.0391-15.723-15.723 0-8.6836 7.0391-15.727 15.723-15.727 8.6875 0 15.727 7.043 15.727 15.727"/>
  <path d="m438.99 478.49c0 8.6836-7.0391 15.723-15.727 15.723-8.6836 0-15.723-7.0391-15.723-15.723 0-8.6836 7.0391-15.727 15.723-15.727 8.6875 0 15.727 7.043 15.727 15.727"/>
  <path d="m344.74 344.46c0 13.078-10.602 23.68-23.68 23.68s-23.68-10.602-23.68-23.68c0-13.078 10.602-23.68 23.68-23.68s23.68 10.602 23.68 23.68"/>
  <path d="m455.09 344.46c0 13.078-10.602 23.68-23.68 23.68s-23.68-10.602-23.68-23.68c0-13.078 10.602-23.68 23.68-23.68s23.68 10.602 23.68 23.68"/>
  <path d="m547.68 234.67c-2.0352-7.2148-5.457-13.504-9.3438-20.348-1.6641-3.0508-4.8086-8.6016-11.008-10.82-10.82-3.8867-19.703 5.6406-23.031 9.1562-11.008 11.746-23.68 21.922-37.555 30.152-3.6055 2.1289-11.191 5.8281-16.371 7.8633-20.441-15.816-45.414-24.418-74.367-24.418-30.34 0-55.59 7.6758-75.848 22.293l-2.8672-0.55469c-4.0703-0.83203-8.1406-2.9609-12.023-5.2734-13.875-8.2305-26.547-18.312-37.555-30.152-3.3281-3.5156-12.117-12.949-23.031-9.1562-6.1953 2.2188-9.3438 7.7695-11.008 10.82-3.8867 6.9375-7.3086 13.227-9.3438 20.348-1.8516 6.3828-3.1445 16 0.64844 25.438 1.7578 4.2539 4.5312 8.3242 8.3242 12.211 11.469 11.746 28.211 18.129 50.781 19.703-14.801 29.23-22.477 67.707-22.477 115.53 0 100.64 64.191 138.84 126.81 141.61 2.5898 0.18359 5.0859 0.27734 7.3984 0.27734 3.1445 0 6.4766-0.18359 9.8047-0.37109 2.0352-0.09375 3.9766-0.27734 6.0117-0.46094 0.83203-0.09375 1.5742-0.18359 2.4062-0.27734 7.3984-0.83203 14.801-2.1289 22.105-4.0703 2.4062-0.64844 4.8086-1.2969 7.1211-2.0352 0.46094-0.18359 0.92578-0.27734 1.3867-0.37109 14.707-4.625 28.305-11.469 38.293-20.535 27.84-22.105 47.359-58.457 47.359-113.77 0-46.527-8.9727-85.559-25.344-115.43 24.051-1.1094 41.715-7.5859 53.742-19.793 3.793-3.8867 6.5664-7.9531 8.3242-12.211 3.7969-9.3516 2.4102-18.969 0.65234-25.352zm-278.69 41.809c-20.625-0.73828-35.148-5.7344-44.398-15.168-2.4062-2.4062-4.0703-4.8086-4.9961-7.1211-1.6641-4.0703-1.7578-9.4336-0.09375-15.078 1.5742-5.5508 4.3477-10.73 7.8633-17.02 1.2031-2.2188 2.1289-3.4219 2.4062-3.6992 0.27734 0 1.9414 0.37109 6.2891 5.0859 12.023 12.855 25.898 23.957 41.066 32.93 2.2188 1.2969 4.5312 2.5898 7.0312 3.793l-0.09375 0.18359c0.55469 0.09375 1.0156 0.37109 1.4805 0.64844-4.625 4.8086-8.8789 10.266-12.766 16-1.1992-0.1875-2.4961-0.27734-3.7891-0.55469zm177.04 238.18c-2.7734 1.8516-5.6406 3.5156-8.6016 5.0859-0.92578 0.46094-1.7578 0.92578-2.6836 1.3867-1.0156 0.46094-2.0352 0.92578-3.0508 1.3867-14.059 6.1055-30.801 9.8047-46.156 10.82-3.1445 0.18359-6.1953 0.37109-9.5273 0.37109-2.3125 0-4.5312-0.18359-6.7539-0.27734-30.895-2.2188-80.84-18.5-80.84-46.805 0-41.992 29.508-63.266 87.594-63.266 54.852 0 87.594 23.68 87.594 63.266 0 11.289-6.9375 20.727-17.574 28.031zm32.836-36.812c-3.8867-35.426-32.375-70.297-102.86-70.297-81.305 0-100.08 40.512-102.95 70.113-10.082-19.148-15.539-42.641-15.539-70.113 0-109.89 39.867-165.57 118.49-165.57 109.98 0 118.49 126.72 118.49 165.57 0 27.562-5.457 51.148-15.633 70.297zm53.465-223.75c-0.92578 2.3125-2.6836 4.7188-4.9961 7.1211-9.7109 9.8984-25.066 14.891-47.172 15.262-0.83203-0.18359-1.5742-0.27734-2.4062-0.27734h-0.27734c-0.73828 0.18359-1.3867 0.27734-2.1289 0.46094-3.8867-5.457-8.0469-10.453-12.578-14.984 0.18359-0.09375 0.27734-0.18359 0.46094-0.27734 1.2969-0.37109 2.4961-0.64844 3.793-1.0156l-0.09375-0.09375c3.5156-1.7578 6.3828-3.2383 7.7695-4.0703 15.168-8.9727 29.043-20.07 41.066-32.93 4.4414-4.7188 6.1055-4.9961 6.1953-5.0859 0.46094 0.27734 1.3867 1.4805 2.5898 3.6992 3.5156 6.1953 6.2891 11.469 7.8633 17.02 1.6719 5.7383 1.6719 11.102-0.085938 15.172z"/>
 </g>
</svg>
