<?xml version="1.0" encoding="UTF-8"?>
<svg width="752pt" height="752pt" version="1.1" viewBox="0 0 752 752" xmlns="http://www.w3.org/2000/svg">
 <g fill="#586c91">
  <path d="m504.39 372.67c0.83203 0.09375 1.6641 0.18359 2.5898 0.18359 7.3984 0 14.613-4.7188 20.535-13.504 18.223-27.379 21.273-61.047 21.922-90.461 0.09375-3.6055 0.18359-8.1406-1.0156-12.766-1.0156-3.8867-2.7734-7.7695-5.6406-12.023-15.262-22.848-43.473-38.109-73.535-39.867-24.234-1.3867-34.133 5.8281-37.461 9.4336-25.258-10.91-54.391-11.098-55.781-11.098-1.3867 0-30.523 0.18359-55.773 11.008-3.3281-3.6055-13.32-10.82-37.461-9.4336-30.062 1.7578-58.273 17.113-73.535 39.867-2.8672 4.3477-4.7188 8.1406-5.6406 12.023-1.2031 4.625-1.1094 9.3438-1.0156 12.855 0.55469 29.414 3.6055 63.082 21.922 90.461 5.918 8.7891 13.043 13.504 20.535 13.504 0.83203 0 1.6641-0.09375 2.5898-0.18359 6.9375-1.0156 11.656-5.7344 14.984-10.176 4.5312 14.43 13.227 34.41 29.875 57.625-15.633 6.7539-45.137 22.293-57.719 47.359-16.465 32.836-16.648 72.426-16.648 74.09v7.8633h315.78v-7.8633c0-1.6641-0.18359-41.16-16.648-74.09-12.578-25.066-42.18-40.605-57.719-47.359 16.742-23.215 25.344-43.195 29.875-57.625 3.4258 4.4414 8.0508 9.1562 14.988 10.176zm-36.168-152.8c25.25 1.4805 48.746 14.152 61.324 32.93 1.8516 2.7734 2.9609 4.9961 3.5156 7.1211 0.64844 2.4062 0.64844 5.2734 0.55469 8.6953-0.55469 27.102-3.2383 57.996-19.238 81.953-2.7734 4.1641-5.918 6.7539-7.6758 6.4766-1.2969-0.18359-3.1445-1.9414-5.5508-5.1797-2.5898-3.6055-4.8086-7.3984-6.9375-11.285l-1.1094-2.2188c-1.7578-3.5156-3.3281-6.9375-4.7188-10.453-0.37109-1.0156-0.83203-2.0352-1.2031-3.1445-0.46094-1.2031-0.83203-2.4961-1.2031-3.6992-0.83203-2.8672-1.6641-5.6406-2.3125-8.5078-1.7578-8.0469-2.4961-16.188-3.3281-24.789-0.92578-9.4336-1.8516-19.148-4.1641-28.766-0.92578-3.793-2.0352-7.3984-3.3281-10.82-1.1094-3.0508-2.4961-5.8281-3.8867-8.5078-0.18359-0.37109-0.37109-0.73828-0.55469-1.1094-1.5742-2.8672-3.2383-5.457-5.0859-7.9531-0.18359-0.27734-0.37109-0.46094-0.46094-0.73828-1.6641-2.2188-3.5156-4.2539-5.457-6.1953-0.27734-0.27734-0.55469-0.64844-0.83203-0.92578l-1.6641-1.6641c-0.27734-0.27734-0.46094-0.55469-0.73828-0.73828 3.5117-0.57422 8.1367-0.85156 14.055-0.48047zm-222.91 137.17c-1.8516 0.37109-4.9023-2.3125-7.6758-6.4766-16-23.957-18.684-54.941-19.238-82.043-0.09375-3.4219-0.09375-6.1953 0.55469-8.6953 0.55469-2.1289 1.6641-4.3477 3.5156-7.1211 12.578-18.871 36.074-31.449 61.324-32.93 1.8516-0.09375 3.5156-0.18359 5.1797-0.18359 3.6055 0 6.5664 0.27734 9.0664 0.64844-0.27734 0.18359-0.46094 0.55469-0.73828 0.73828l-1.6641 1.6641c-0.27734 0.27734-0.55469 0.64844-0.92578 1.0156-1.9414 1.9414-3.793 3.8867-5.457 6.1055-0.18359 0.27734-0.37109 0.55469-0.55469 0.73828-1.8516 2.4961-3.5156 5.0859-4.9961 7.8633-0.18359 0.37109-0.37109 0.73828-0.55469 1.1094-1.3867 2.6836-2.7734 5.457-3.8867 8.5078-1.2969 3.5156-2.4961 7.1211-3.3281 10.82-2.2188 9.6211-3.2383 19.332-4.1641 28.676-0.83203 8.6016-1.6641 16.836-3.3281 24.789-0.64844 2.8672-1.4805 5.7344-2.3125 8.6016-0.37109 1.2031-0.73828 2.4062-1.2031 3.6055-0.37109 1.1094-0.83203 2.2188-1.2969 3.3281-1.3867 3.4219-2.8672 6.8438-4.625 10.266l-1.1094 2.2188c-2.1289 3.8867-4.4414 7.6758-6.9375 11.285-2.4062 3.5273-4.2578 5.2852-5.6445 5.4688zm257.88 117.47c10.637 21.273 13.688 46.527 14.613 59.105l-141.8-0.003907h-141.8c0.83203-12.578 3.9766-37.738 14.613-59.105 11.285-22.57 41.715-36.723 53.648-41.531 14.891 17.668 30.617 27.562 46.805 29.137 1.5742 0.18359 3.1445 0.27734 4.7188 0.27734 9.7109 0 17.391-3.1445 22.016-5.6406 5.3633 2.9609 14.707 6.6602 26.641 5.457 16.188-1.6641 31.91-11.469 46.805-29.137 12.02 4.7188 42.359 18.777 53.734 41.441zm-62.344-55.684c-13.133 16.926-26.453 26.176-39.402 27.656-8.1406 0.83203-14.246-1.5742-17.574-3.3281v-20.996c13.598-5.2734 23.68-22.66 23.68-29.969 0-8.6953-14.152-15.816-31.543-15.816s-31.543 7.0312-31.543 15.816c0 7.3984 10.082 24.695 23.68 29.969v20.996c-3.3281 1.8516-9.4336 4.2539-17.574 3.3281-13.043-1.4805-26.27-10.73-39.402-27.656-27.656-35.52-35.055-63.266-37.09-75.477 0-0.09375 0.09375-0.18359 0.09375-0.27734 1.0156-2.0352 1.9414-4.1641 2.8672-6.1953 1.1094-2.4961 2.0352-5.0859 2.9609-7.6758 0.37109-1.1094 0.73828-2.1289 1.0156-3.2383 1.0156-3.3281 2.0352-6.7539 2.7734-10.082 1.9414-8.8789 2.7734-17.945 3.6055-26.641 0.92578-9.25 1.7578-18.035 3.793-26.641 0.64844-2.5898 1.3867-4.9961 2.2188-7.3984 0.18359-0.46094 0.37109-0.83203 0.46094-1.2969 0.73828-2.0352 1.5742-3.9766 2.4961-5.8281 0.18359-0.27734 0.27734-0.55469 0.46094-0.83203 1.1094-2.1289 2.2188-4.0703 3.5156-5.918 1.3867-1.9414 2.8672-3.793 4.3477-5.457l11.008-2.0352 1.2969-0.83203c22.945-14.43 58.648-14.707 59.016-14.707 0.37109 0 35.98 0.18359 59.012 14.613l1.2969 0.83203 11.008 2.0352c3.0508 3.2383 5.6406 7.1211 7.9531 11.469 0.09375 0.27734 0.27734 0.55469 0.37109 0.83203 0.92578 1.8516 1.7578 3.8867 2.4961 5.918 0.18359 0.46094 0.37109 0.83203 0.46094 1.2969 0.83203 2.4062 1.5742 4.9023 2.2188 7.3984 2.0352 8.6016 2.8672 17.391 3.793 26.641 0.83203 8.6953 1.7578 17.668 3.6055 26.641 0.73828 3.3281 1.6641 6.6602 2.6836 10.082 0.37109 1.1094 0.64844 2.2188 1.0156 3.2383 0.92578 2.5898 1.8516 5.0859 2.9609 7.5859 0.92578 2.1289 1.8516 4.1641 2.8672 6.2891 0 0.09375 0.09375 0.18359 0.09375 0.18359-1.9375 12.207-9.3398 39.863-36.996 75.477z"/>
  <path d="m344.37 324.95c0 10.879-8.8203 19.699-19.703 19.699-10.879 0-19.699-8.8203-19.699-19.699 0-10.883 8.8203-19.703 19.699-19.703 10.883 0 19.703 8.8203 19.703 19.703"/>
  <path d="m446.95 324.95c0 10.879-8.8203 19.699-19.699 19.699-10.883 0-19.703-8.8203-19.703-19.699 0-10.883 8.8203-19.703 19.703-19.703 10.879 0 19.699 8.8203 19.699 19.703"/>
 </g>
</svg>
