<?xml version="1.0" encoding="UTF-8"?>
<svg width="752pt" height="752pt" version="1.1" viewBox="0 0 752 752" xmlns="http://www.w3.org/2000/svg">
 <g fill="#586c91">
  <path d="m576.39 345c-14.742-12.723-30.562-24.137-47.285-34.113-9.9883-53.793-71.703-111.44-113.81-86.207-16.945 9.8398-25.602 30.637-24.051 56.312l-8.8789 1.0352h-0.96094c-51.059-41.586-118.39-25.973-106.63 39.219-3.4453 2.6133-6.707 5.457-9.7656 8.5117l-48.91-28.266h-0.003906c-11.293-6.4492-25.16-6.418-36.418 0.089844-11.258 6.5039-18.215 18.5-18.266 31.504v85.836c0.29688 12.914 7.3086 24.738 18.496 31.191 11.188 6.457 24.934 6.6094 36.262 0.40625l48.84-28.266c0.44531 0.44531 0.88672 0.96094 1.4062 1.4062-17.465 29.969-10.508 60.383 22.199 67.043 27.008 4.293 53.426-5.0312 80.805-22.645 3.9219 0.66406 7.3984 1.2578 11.766 1.7773l-0.003906-0.003906c0.71094 0.11328 1.4375 0.11328 2.1484 0h1.5547c0.8125 31.598 31.227 48.766 61.27 42.918 38.848-5.1055 82.359-42.105 94.789-79.547 12.422-8.0977 24.289-17.023 35.52-26.711 8.7695-7.8164 13.781-19.012 13.766-30.762-0.015624-11.75-5.0508-22.934-13.84-30.73zm-207.79 107.96c-4.6602-0.8125-9.25-1.7773-13.688-2.8125-26.438-45.789-26.438-102.2 0-147.99 4.5859-1.1094 9.3242-1.9961 14.059-2.8867-25.68 48.145-25.68 105.92 0 154.06zm-96.195-44.914c-3.4844-3.3086-8.9492-3.3086-12.434 0-4.8086-21.289-4.8086-43.383 0-64.676 3.4844 3.3086 8.9492 3.3086 12.434 0 17.406-17.688 39.184-30.449 63.117-36.996-20.273 43.637-20.273 93.996 0 137.63-23.824-6.25-45.594-18.652-63.117-35.961zm-37.664 14.801v-0.003906c-10.141-30.453-10.141-63.371 0-93.828l11.914 6.8828c-6.668 26.273-6.668 53.793 0 80.066zm153.1 32.855-0.003906-0.003907c-15.238-23.812-23.336-51.496-23.336-79.77 0-28.27 8.0977-55.953 23.336-79.766 31.051-4.7461 62.781-2.0312 92.57 7.918-22.285 45.309-22.285 98.391 0 143.7-29.898 10.035-61.766 12.773-92.938 7.9922zm106.11-13.102c-21.191-41.867-21.191-91.324 0-133.2 3.625 1.5547 7.3984 3.1836 10.805 4.957v0.003906c-16.281 39.375-16.281 83.605 0 122.98-3.5547 1.9258-7.1797 3.5547-10.805 5.2539zm-71.258-205.04c27.676-16.945 75.773 23.531 88.203 63.488-32.367-16.566-68.668-23.91-104.93-21.238-1.1836-19.832 4.8125-35.371 16.727-42.25zm-125.8 45.062c13.098-13.172 38.551-11.395 63.195 3.0352-3.7734 0.73828-7.3984 1.5547-11.246 2.4414l-1.4062 0.37109h-0.003906c-20.797 4.875-40.75 12.832-59.195 23.602-1.7031-10.605 1.4492-21.418 8.582-29.449zm-88.055 155.39c-6.8047 3.625-15 3.4609-21.652-0.42969-6.6523-3.8945-10.809-10.957-10.98-18.664v-85.836c0.29687-7.6367 4.5039-14.586 11.133-18.391 6.6328-3.8047 14.754-3.9297 21.5-0.32812l12.504 7.3984c-12.656 35.152-12.656 73.621 0 108.78zm82.656 38.477c-21.68-4.4414-23.902-22.199-13.32-42.992h-0.003907c20.801 14.32 44.129 24.562 68.746 30.191h0.8125c-20.273 10.73-40.922 15.465-56.312 12.508zm204.23-3.2578c-26.047 24.938-87.762 44.988-96.195-1.1836l-0.003906 0.003906c40.895 3.9336 82.027-4.5508 118.03-24.348-6.0977 9.3867-13.469 17.879-21.902 25.234zm71.109-77.105v0.003906c-11.219 9.4883-23.059 18.215-35.445 26.121-4.293 2.8125-8.7305 5.4766-13.246 7.9922-14.059-34.949-14.059-73.977 0-108.93 17.348 9.9609 33.699 21.559 48.84 34.633 5.7695 5.0352 9.0625 12.332 9.0195 19.992-0.042968 7.6602-3.418 14.918-9.2422 19.891z"/>
  <path d="m546.57 353.8c-2.9297-2.8359-7.0703-4.043-11.062-3.2305-3.9961 0.81641-7.332 3.5469-8.918 7.3008-1.9414 4.5273-0.91406 9.7812 2.5898 13.246 1.1211 1.2383 2.5117 2.2031 4.0703 2.8125 4.6055 1.8555 9.8711 0.77344 13.371-2.7461 3.5039-3.5156 4.5586-8.7891 2.6836-13.387-0.65625-1.4883-1.5859-2.8438-2.7344-3.9961z"/>
 </g>
</svg>
