<?xml version="1.0" encoding="UTF-8"?>
<svg width="752pt" height="752pt" version="1.1" viewBox="0 0 752 752" xmlns="http://www.w3.org/2000/svg">
 <g fill="#87736b">
  <path d="m533.61 423.27c0-33.574-24.695-66.227-31.633-74.738-0.92578-10.359-2.5898-19.703-5.0859-28.211 7.5859-8.7891 14.246-19.609 19.238-31.543 7.3086-17.297 10.543-35.242 9.25-50.41-1.4805-17.02-8.5078-28.953-19.887-33.762-11.379-4.7188-24.789-1.3867-38.016 9.4336-10.176 8.3242-19.426 20.625-26.453 34.965-26.453-15.168-51.984-15.078-62.988-14.891h-4.2578c-11.098-0.09375-36.535-0.27734-62.988 14.891-7.0312-14.332-16.188-26.543-26.363-34.961-13.133-10.82-26.73-14.152-38.016-9.4336-11.379 4.8086-18.406 16.742-19.887 33.762-1.2969 15.168 1.9414 33.113 9.25 50.41 4.9961 11.934 11.656 22.754 19.238 31.543-2.4062 8.6016-4.1641 17.852-5.0859 28.211-6.8438 8.418-31.633 41.16-31.633 74.738 0 46.805 33.207 126.16 157.61 126.16 124.5 0 157.7-79.27 157.7-126.17zm-55.957-197.02c8.3242-6.8438 16.281-9.4336 21.922-7.0312 5.5508 2.3125 9.3438 9.8984 10.266 20.625 1.1094 12.672-1.7578 27.934-8.0469 42.918-3.1445 7.3984-6.9375 14.246-11.191 20.258-1.6641-3.4219-3.3281-6.7539-5.3633-9.9883-9.4336-15.355-19.98-26.641-30.707-35.055 6.1016-13.137 14.148-24.418 23.121-31.727zm-227.36 56.422c-6.2891-14.984-9.1562-30.246-8.0469-42.918 0.92578-10.73 4.7188-18.223 10.266-20.625 5.5508-2.4062 13.598 0.18359 21.922 7.0312 8.8789 7.3086 16.926 18.59 23.125 31.727-10.73 8.418-21.273 19.703-30.707 35.055-1.9414 3.2383-3.6992 6.5664-5.3633 9.9883-4.2617-6.0117-8.0508-12.855-11.195-20.258zm13.227 74.273 1.7578-1.9414 0.18359-2.5898c1.6641-21.09 6.3828-37.367 14.801-51.059 31.91-51.891 76.586-51.43 93.516-51.43h4.625c16.836 0 61.602-0.46094 93.516 51.43 8.418 13.688 13.133 29.969 14.801 51.059l0.18359 2.5898 1.7578 1.9414c0.27734 0.37109 29.414 34.133 29.414 66.414 0 2.2188-0.18359 7.9531-1.4805 15.633-14.059-13.41-44.305-31.543-98.785-17.02-5.7344-8.1406-18.684-21.645-41.625-22.199v-0.09375c-0.27734 0-0.46094 0.09375-0.73828 0.09375s-0.46094-0.09375-0.73828-0.09375v0.09375c-22.938 0.55469-35.887 14.059-41.625 22.199-53-14.152-83.062 2.5898-97.582 15.91-1.2031-7.1211-1.2969-12.488-1.2969-14.613-0.097657-32.191 29.039-66.043 29.316-66.324zm112.47 176.76c-92.773 0-124.87-44.77-136.06-77.605 6.6602-8.6953 33.113-35.703 94.348-17.297l6.4766 1.8516 2.9609-6.1055c0.37109-0.73828 9.25-18.684 31.543-19.055 22.293 0.37109 31.172 18.312 31.543 18.961l2.8672 6.1953 6.5664-1.9414c65.023-19.516 90.555 11.656 95.27 18.684-11.473 32.656-43.938 76.312-135.51 76.312z"/>
  <path d="m397.55 495.79c-7.9531-3.4219-12.023-14.246-13.32-20.07 8.9727-5.918 15.445-19.793 15.445-24.883 0-6.5664-10.543-11.84-23.68-11.84-13.043 0-23.68 5.2734-23.68 11.84 0 5.0859 6.3828 18.961 15.445 24.789-1.1094 4.625-4.625 16.281-13.32 20.07-8.7891 3.793-20.719-2.3125-29.23-8.0469l-8.8789 13.043c11.746 8.0469 22.477 12.023 32.004 12.023 4.3477 0 8.5078-0.83203 12.395-2.4961 6.8438-2.9609 11.746-8.2305 15.262-13.688 3.4219 5.457 8.3242 10.637 15.262 13.688 3.8867 1.6641 8.0469 2.4961 12.395 2.4961 9.5273 0 20.258-4.0703 32.004-12.023l-8.8789-13.043c-8.5039 5.918-20.438 11.934-29.223 8.1406z"/>
  <path d="m328.73 379.98c0 10.879-8.8203 19.699-19.699 19.699-10.883 0-19.703-8.8203-19.703-19.699 0-10.883 8.8203-19.703 19.703-19.703 10.879 0 19.699 8.8203 19.699 19.703"/>
  <path d="m462.67 379.98c0 10.879-8.8203 19.699-19.703 19.699s-19.703-8.8203-19.703-19.699c0-10.883 8.8203-19.703 19.703-19.703s19.703 8.8203 19.703 19.703"/>
 </g>
</svg>
