<?xml version="1.0" encoding="UTF-8"?>
<svg width="752pt" height="752pt" version="1.1" viewBox="0 0 752 752" xmlns="http://www.w3.org/2000/svg">
 <g fill="#87736b">
  <path d="m589.11 426.2-10.418-38.832c-14.207-52.566-52.566-107.98-108.45-130.23 5.2109-30.781 6.1562-81.457-8.5234-101.35-5.6836-7.5781-12.785-9.9453-17.523-9.9453-89.508-5.2109-170.49 24.152-221.16 80.98-48.305 53.988-67.723 128.34-56.355 215.95 12.312 82.402 76.719 164.33 179.01 164.33h6.6289c98.977-3.3164 156.28-28.414 204.11-89.035l0.94531-1.4219c6.6289-12.785 6.1562-26.992-0.47266-38.832h0.47266c11.367-2.3672 21.312-8.9961 26.992-18.941 6.1641-9.4688 8.0586-21.309 4.7422-32.676zm-20.84 22.734c-3.3164 5.2109-8.5234 8.9961-14.68 10.418l-109.87 21.785c-26.047 5.2109-51.148 14.207-74.352 27.469l9.4727 16.574c21.312-12.312 44.516-20.836 68.668-25.574l88.559-17.523c7.5781 7.1055 8.9961 16.574 4.7344 25.102-26.52 33.625-56.828 58.25-109.87 71.039-50.199 4.7344-101.82-10.891-138.29-42.148-29.363-25.102-46.41-58.25-48.777-93.297l-18.941 0.94531c2.3672 40.254 21.785 78.141 54.934 106.55 19.418 16.574 43.098 29.363 68.668 37.414-87.141 1.8945-145.39-62.984-161.49-133.08-15.156-88.086 1.8945-162.91 49.254-215.95 46.883-52.566 122.18-79.562 206.01-74.824 0.47266 0 1.4219 0 3.3164 2.3672 9.9453 13.262 9.9453 55.41 5.6836 84.297-10.891-2.8398-22.73-4.2617-35.047-4.2617h-2.8398l0.47266 18.941h2.3672c74.824 0 126.45 65.355 143.02 126.45l10.418 38.832c2.8477 7.1094 1.8984 13.266-1.418 18.477z"/>
  <path d="m393.05 307.8c-20.836-0.94531-41.203 6.6289-56.355 21.312-15.629 14.207-24.152 33.625-25.102 54.934-1.4219 43.57 32.676 80.035 76.246 81.457h2.8398c19.891 0 38.832-7.5781 53.516-21.312 15.156-14.207 24.152-33.625 25.102-54.934 0.94531-20.836-6.6289-41.203-21.312-56.355-14.68-15.629-34.098-24.625-54.934-25.102zm37.887 122.18c-11.84 10.891-26.992 16.574-43.098 16.102-33.152-0.94531-58.723-28.887-57.777-62.039 0.47266-16.102 7.1055-30.781 18.941-41.676 11.367-10.418 25.574-16.102 40.727-16.102h1.8945c16.102 0.47266 30.781 7.1055 41.676 18.941 10.891 11.84 16.574 26.992 16.102 43.098 0.003906 16.105-6.625 30.785-18.465 41.676z"/>
  <path d="m377.89 371.74c-14.68-0.47266-26.52 10.891-26.992 25.574-0.47266 14.68 10.891 26.52 25.574 26.992 14.68 0.47266 26.52-10.891 26.992-25.574 0-14.203-11.367-26.52-25.574-26.992z"/>
  <path d="m506.23 400.15c5.6836 5.6836 9.4727 12.312 10.891 20.363l18.469-3.7891c-2.3672-11.367-8.0508-21.785-16.102-29.836z"/>
  <path d="m284.08 276.74-28.434-33.637 14.469-12.23 28.434 33.637z"/>
  <path d="m248.98 329.3-35.484-13.277 6.6406-17.742 35.484 13.277z"/>
  <path d="m230.43 390.44-31.113-6.2109 3.7109-18.574 31.113 6.2109z"/>
  <path d="m343.05 195.48 15.207 41.336-17.777 6.543-15.207-41.336z"/>
  <path d="m422.17 182.82 1.6914 44.012-18.93 0.72656-1.6914-44.012z"/>
 </g>
</svg>
