<?xml version="1.0" encoding="UTF-8"?>
<svg width="752pt" height="752pt" version="1.1" viewBox="0 0 752 752" xmlns="http://www.w3.org/2000/svg">
 <g fill="#87736b">
  <path d="m376 198.41c-97.676 0-177.59 79.914-177.59 177.59s79.918 177.59 177.59 177.59c97.676 0 177.59-79.918 177.59-177.59-0.003906-97.676-79.922-177.59-177.6-177.59zm0 325.59c-81.398 0-147.99-66.598-147.99-147.99 0-81.398 66.598-148 147.99-148 81.398 0 147.99 66.598 147.99 147.99 0.003906 81.398-66.594 148-147.99 148z"/>
  <path d="m293.12 347.88c-16.281 0-28.117 13.32-28.117 28.117 0 16.281 13.32 28.117 28.117 28.117 16.281 0 28.117-13.32 28.117-28.117 0-16.277-11.84-28.117-28.117-28.117z"/>
  <path d="m376 347.88c-16.281 0-28.117 13.32-28.117 28.117 0 16.281 13.32 28.117 28.117 28.117 16.281 0 28.117-13.32 28.117-28.117 0.003906-16.277-11.836-28.117-28.117-28.117z"/>
  <path d="m458.88 347.88c-16.281 0-28.117 13.32-28.117 28.117 0 16.281 13.32 28.117 28.117 28.117 16.281 0 28.117-13.32 28.117-28.117 0-16.277-13.32-28.117-28.117-28.117z"/>
 </g>
</svg>
