<?xml version="1.0" encoding="UTF-8"?>
<svg width="752pt" height="752pt" version="1.1" viewBox="0 0 752 752" xmlns="http://www.w3.org/2000/svg">
 <g fill="#87736b">
  <path d="m479.23 350.2c48.375-27.285 76.125-81.676 68.91-117.1-3.9766-19.332-17.758-30.43-37.922-30.43-46.895 0-108.78 89.723-122.74 110.81-3.6992-0.27734-7.4922-0.46094-11.285-0.46094-3.8867 0-7.7695 0.18359-11.656 0.46094-13.875-21.09-75.754-110.81-122.74-110.81-20.164 0-34.039 11.098-37.922 30.43-7.2148 35.52 20.535 90 69.094 117.29-23.957 21.184-38.664 49.578-38.664 80.934 0 65.211 63.637 118.21 141.89 118.21 78.25 0 141.89-53 141.89-118.21-0.003906-31.445-14.801-59.938-38.852-81.117zm30.988-131.9c12.488 0 20.07 6.0117 22.477 17.852 5.5508 27.102-17.945 79.27-67.059 103.32-17.297-11.746-37.922-20.164-60.492-24.051 23.398-34.129 73.254-97.117 105.07-97.117zm-290.9 17.852c2.4062-11.84 9.9883-17.852 22.477-17.852 31.82 0 81.676 63.082 105.07 97.121-22.57 3.9766-43.102 12.395-60.398 24.141-49.117-23.957-72.703-76.219-67.152-103.41zm72.055 270.64c15.91-36.535 48.559-59.844 84.82-59.844 36.168 0 68.91 23.309 84.82 59.844-22.383 16.648-52.168 26.824-84.82 26.824-32.652 0.089843-62.438-10.176-84.82-26.824zm182.12-10.453c-19.055-39.867-56.238-65.117-97.305-65.117-41.16 0-78.25 25.25-97.305 65.117-18.035-17.758-28.859-40.422-28.859-65.117 0-56.516 56.609-102.48 126.16-102.48 69.559 0 126.16 45.969 126.16 102.48-0.09375 24.695-10.914 47.355-28.859 65.117z"/>
  <path d="m328.92 411.52c0 6.5391-5.3008 11.84-11.84 11.84-6.5391 0-11.84-5.3008-11.84-11.84 0-6.5391 5.3008-11.84 11.84-11.84 6.5391 0 11.84 5.3008 11.84 11.84"/>
  <path d="m447.13 411.52c0 6.5391-5.3008 11.84-11.84 11.84-6.5391 0-11.84-5.3008-11.84-11.84 0-6.5391 5.3008-11.84 11.84-11.84 6.5391 0 11.84 5.3008 11.84 11.84"/>
  <path d="m385.44 498.28c-0.46094-0.37109-1.2969-1.0156-1.4805-3.2383 0-0.27734 0.09375-0.46094 0.09375-0.73828v-9.3438c9.1562-3.1445 15.723-10.914 15.723-14.336 0-4.3477-10.543-7.8633-23.68-7.8633-13.043 0-23.68 3.5156-23.68 7.8633 0 3.4219 6.4766 11.098 15.633 14.246v9.3438c0 0.27734 0.09375 0.46094 0.09375 0.73828-0.18359 2.2188-1.0156 2.8672-1.4805 3.2383-5.918 4.1641-24.512 0.37109-35.148-3.5156l-5.3633 14.801c3.793 1.3867 18.129 6.1953 31.543 6.1953 6.6602 0 13.133-1.2031 18.035-4.625l0.27734-0.27734 0.27734 0.27734c4.9023 3.4219 11.379 4.625 18.035 4.625 13.41 0 27.75-4.9023 31.543-6.1953l-5.3633-14.801c-11.012 4.0664-29.418 7.582-35.059 3.6055z"/>
 </g>
</svg>
